<svg width="1920" height="183" viewBox="0 0 1920 183" fill="none" xmlns="http://www.w3.org/2000/svg">
<path fill-rule="evenodd" clip-rule="evenodd" d="M2011 133.754L1929.97 112.782C1848.93 91.8099 1686.87 49.8656 1524.8 24.5242C1362.73 -0.380219 1200.67 -9.11862 1038.6 16.2227C876.533 41.5641 714.467 100.111 552.4 129.385C390.333 158.659 228.267 158.659 66.2 146.425C-95.8667 133.754 -257.933 108.413 -338.967 95.7422L-420 83.5084V184H-338.967C-257.933 184 -95.8667 184 66.2 184C228.267 184 390.333 184 552.4 184C714.467 184 876.533 184 1038.6 184C1200.67 184 1362.73 184 1524.8 184C1686.87 184 1848.93 184 1929.97 184H2011V133.754Z" fill="#020303"/>
</svg>
