<svg width="1920" height="167" viewBox="0 0 1920 167" fill="none" xmlns="http://www.w3.org/2000/svg">
<path fill-rule="evenodd" clip-rule="evenodd" d="M1999 133.754L1917.97 112.782C1836.93 91.8099 1674.87 49.8656 1512.8 24.5242C1350.73 -0.380219 1188.67 -9.11862 1026.6 16.2227C864.533 41.5641 702.467 100.111 540.4 129.385C378.333 158.659 216.267 158.659 54.2 146.425C-107.867 133.754 -269.933 108.413 -350.967 95.7422L-432 83.5084V184H-350.967C-269.933 184 -107.867 184 54.2 184C216.267 184 378.333 184 540.4 184C702.467 184 864.533 184 1026.6 184C1188.67 184 1350.73 184 1512.8 184C1674.87 184 1836.93 184 1917.97 184H1999V133.754Z" fill="#0C0D0E"/>
</svg>
